<?xml version="1.0" encoding="UTF-8"?>
<svg xmlns="http://www.w3.org/2000/svg" xmlns:xlink="http://www.w3.org/1999/xlink" width="80px" height="80px" viewBox="0 0 80 80" version="1.1">
<g id="surface1">
<path style=" stroke:none;fill-rule:nonzero;fill:rgb(100%,100%,100%);fill-opacity:1;" d="M 63.226562 4.132812 L 62.640625 6.132812 L 53.972656 6.132812 L 53.601562 7.253906 L 53.199219 8.398438 L 50 8.535156 C 47.226562 8.640625 46.800781 8.71875 46.71875 9.121094 C 46.640625 9.546875 46.933594 9.601562 49.839844 9.601562 C 52.800781 9.601562 53.039062 9.574219 53.199219 9.066406 C 53.359375 8.558594 53.601562 8.535156 57.464844 8.535156 C 59.734375 8.535156 61.625 8.613281 61.679688 8.71875 C 61.761719 8.851562 61.574219 9.652344 61.308594 10.558594 L 60.800781 12.1875 L 59.011719 12.347656 C 58 12.453125 56.054688 12.535156 54.613281 12.535156 L 52.054688 12.535156 L 51.679688 13.652344 L 51.28125 14.800781 L 48.105469 14.933594 C 45.359375 15.039062 44.933594 15.121094 44.851562 15.519531 C 44.773438 15.945312 45.066406 16 47.945312 16 C 50.90625 16 51.148438 15.972656 51.28125 15.464844 C 51.414062 14.960938 51.652344 14.933594 55.574219 14.933594 C 60.347656 14.933594 60.160156 14.800781 59.226562 17.464844 L 58.746094 18.800781 L 54.375 18.933594 L 50.027344 19.066406 L 49.707031 20.132812 L 49.414062 21.199219 L 46.238281 21.332031 C 43.492188 21.441406 43.066406 21.519531 42.988281 21.921875 C 42.90625 22.347656 43.199219 22.398438 46.105469 22.398438 C 48.800781 22.398438 49.332031 22.347656 49.332031 22 C 49.332031 21.734375 49.625 21.601562 50.347656 21.574219 C 50.878906 21.546875 52.878906 21.464844 54.773438 21.359375 L 58.214844 21.199219 L 58.613281 20.054688 L 58.988281 18.933594 L 71.09375 18.933594 L 71.679688 17.121094 C 72 16.105469 72.265625 15.226562 72.265625 15.121094 C 72.265625 15.011719 69.574219 14.933594 66.265625 14.933594 C 62.960938 14.933594 60.265625 14.851562 60.265625 14.773438 C 60.265625 14.667969 60.398438 14.132812 60.585938 13.574219 L 60.878906 12.535156 L 73.039062 12.535156 L 73.601562 10.773438 C 73.894531 9.8125 74.132812 8.90625 74.132812 8.773438 C 74.132812 8.640625 71.464844 8.535156 68.105469 8.535156 C 62.507812 8.535156 62.105469 8.507812 62.238281 8.054688 C 62.320312 7.8125 62.453125 7.28125 62.558594 6.878906 L 62.71875 6.132812 L 68.851562 6.078125 L 74.988281 6 L 75.492188 4.398438 C 75.761719 3.519531 76 2.640625 76 2.453125 C 76 2.214844 74.613281 2.132812 69.921875 2.132812 L 63.8125 2.132812 Z M 63.226562 4.132812 "/>
<path style=" stroke:none;fill-rule:nonzero;fill:rgb(100%,100%,100%);fill-opacity:1;" d="M 4.667969 27.308594 C 2.238281 28.347656 1.148438 31.945312 2.425781 34.585938 C 3.039062 35.867188 3.8125 36.347656 6.71875 37.308594 C 9.011719 38.078125 9.867188 38.988281 9.867188 40.71875 C 9.867188 43.039062 8.613281 44.558594 6.691406 44.585938 C 4.507812 44.613281 2.90625 43.039062 2.292969 40.1875 C 2.1875 39.785156 2 39.464844 1.867188 39.464844 C 1.519531 39.464844 1.519531 44.71875 1.839844 44.90625 C 1.972656 44.988281 2.265625 44.746094 2.507812 44.375 L 2.960938 43.707031 L 3.761719 44.375 C 4.71875 45.199219 6.558594 45.492188 7.839844 45.066406 C 10.425781 44.214844 11.839844 40.585938 10.90625 37.199219 C 10.453125 35.625 9.226562 34.640625 6.800781 33.867188 C 4.054688 33.011719 3.199219 32.292969 3.199219 30.878906 C 3.199219 28.851562 4.347656 27.734375 6.453125 27.734375 C 7.332031 27.734375 7.679688 27.894531 8.398438 28.667969 C 8.878906 29.171875 9.386719 30.027344 9.519531 30.558594 C 9.625 31.121094 9.894531 31.601562 10.078125 31.679688 C 10.320312 31.761719 10.398438 31.199219 10.398438 29.519531 C 10.398438 28.292969 10.320312 27.199219 10.214844 27.09375 C 10.105469 26.988281 9.839844 27.148438 9.601562 27.464844 L 9.199219 28 L 8.132812 27.464844 C 6.933594 26.851562 5.8125 26.800781 4.667969 27.308594 Z M 4.667969 27.308594 "/>
<path style=" stroke:none;fill-rule:nonzero;fill:rgb(100%,100%,100%);fill-opacity:1;" d="M 58.132812 27.226562 C 56.054688 28.054688 54.746094 31.226562 55.441406 33.785156 C 55.867188 35.308594 57.171875 36.375 59.464844 37.066406 C 60.585938 37.414062 61.707031 37.945312 62.265625 38.453125 C 63.121094 39.171875 63.199219 39.386719 63.199219 40.71875 C 63.199219 43.148438 62.054688 44.558594 60.027344 44.585938 C 58.027344 44.613281 56.398438 43.09375 55.734375 40.585938 C 55.574219 39.972656 55.332031 39.464844 55.199219 39.464844 C 54.90625 39.464844 54.878906 41.839844 55.171875 43.867188 L 55.332031 45.199219 L 55.839844 44.453125 C 56.292969 43.785156 56.375 43.761719 56.773438 44.105469 C 57.011719 44.347656 57.652344 44.691406 58.214844 44.933594 C 61.171875 46.160156 64.078125 44.078125 64.453125 40.453125 C 64.851562 36.558594 63.8125 35.039062 59.921875 33.785156 C 57.066406 32.851562 56.425781 32.1875 56.613281 30.398438 C 56.800781 28.746094 57.945312 27.734375 59.625 27.734375 C 60.667969 27.734375 60.988281 27.867188 61.734375 28.613281 C 62.214844 29.09375 62.746094 30 62.90625 30.613281 C 63.414062 32.425781 63.734375 31.921875 63.734375 29.332031 C 63.734375 26.960938 63.492188 26.398438 62.933594 27.441406 C 62.667969 27.972656 62.640625 27.972656 61.519531 27.464844 C 60.292969 26.90625 59.171875 26.828125 58.132812 27.226562 Z M 58.132812 27.226562 "/>
<path style=" stroke:none;fill-rule:nonzero;fill:rgb(100%,100%,100%);fill-opacity:1;" d="M 10.933594 27.441406 C 10.933594 27.574219 11.253906 27.734375 11.679688 27.785156 L 12.398438 27.867188 L 12.398438 44.398438 L 11.679688 44.480469 C 11.253906 44.535156 10.933594 44.691406 10.933594 44.828125 C 10.933594 44.960938 12.078125 45.066406 13.464844 45.066406 C 14.851562 45.066406 16 44.960938 16 44.828125 C 16 44.691406 15.679688 44.535156 15.28125 44.480469 L 14.535156 44.398438 L 14.453125 35.785156 L 14.398438 27.199219 L 12.667969 27.199219 C 11.707031 27.199219 10.933594 27.308594 10.933594 27.441406 Z M 10.933594 27.441406 "/>
<path style=" stroke:none;fill-rule:nonzero;fill:rgb(100%,100%,100%);fill-opacity:1;" d="M 25.199219 27.464844 C 25.09375 27.625 25.414062 27.734375 25.972656 27.734375 L 26.933594 27.734375 L 26.933594 44.558594 L 25.546875 44.480469 L 24.132812 44.398438 L 24.054688 39.519531 L 24 34.667969 L 20.265625 34.667969 C 17.945312 34.667969 16.535156 34.773438 16.535156 34.933594 C 16.535156 35.066406 16.960938 35.199219 17.464844 35.199219 C 17.972656 35.199219 18.398438 35.308594 18.398438 35.414062 C 18.398438 35.519531 17.734375 36.265625 16.90625 37.066406 C 14.667969 39.28125 14.691406 39.121094 16.535156 41.867188 C 17.414062 43.171875 18.132812 44.320312 18.132812 44.398438 C 18.132812 44.480469 17.894531 44.535156 17.601562 44.535156 C 17.308594 44.535156 17.066406 44.667969 17.066406 44.800781 C 17.066406 44.988281 20.292969 45.066406 26.640625 45.066406 C 34.800781 45.039062 36.238281 44.988281 36.375 44.640625 C 36.507812 44.320312 36.667969 44.347656 37.519531 44.800781 C 38.71875 45.441406 39.492188 45.464844 40.535156 44.933594 C 41.574219 44.398438 42.132812 43.253906 42.132812 41.625 C 42.132812 39.761719 41.253906 38.800781 39.066406 38.238281 C 37.199219 37.734375 36.800781 37.464844 36.800781 36.667969 C 36.800781 35.839844 37.625 35.199219 38.71875 35.199219 C 39.464844 35.199219 39.839844 35.386719 40.375 36.027344 C 40.746094 36.480469 41.066406 37.011719 41.066406 37.226562 C 41.066406 37.441406 41.199219 37.601562 41.332031 37.601562 C 41.492188 37.601562 41.601562 36.878906 41.601562 35.921875 C 41.574219 34.453125 41.546875 34.320312 41.199219 34.773438 C 40.851562 35.226562 40.800781 35.226562 40.214844 34.828125 C 39.519531 34.320312 38.347656 34.265625 37.519531 34.691406 C 36.425781 35.253906 36 36.054688 36 37.601562 C 36 39.8125 36.507812 40.320312 39.386719 41.066406 C 41.359375 41.574219 41.839844 42.585938 40.71875 43.894531 C 39.464844 45.359375 37.253906 44.398438 36.558594 42.132812 C 36.078125 40.558594 35.734375 40.851562 35.734375 42.800781 L 35.734375 44.535156 L 33.867188 44.535156 L 33.8125 35.921875 L 33.734375 27.332031 L 31.945312 27.253906 C 30.800781 27.199219 30.132812 27.28125 30.132812 27.464844 C 30.132812 27.601562 30.507812 27.734375 30.933594 27.734375 L 31.734375 27.734375 L 31.734375 44.558594 L 30.347656 44.480469 L 28.933594 44.398438 L 28.851562 35.785156 L 28.800781 27.199219 L 27.066406 27.199219 C 26.132812 27.199219 25.28125 27.308594 25.199219 27.464844 Z M 22.132812 39.867188 C 22.132812 45.839844 22.027344 45.894531 18.933594 41.414062 L 16.800781 38.292969 L 18.320312 36.746094 C 19.707031 35.332031 19.945312 35.199219 20.988281 35.199219 L 22.132812 35.199219 Z M 22.132812 39.867188 "/>
<path style=" stroke:none;fill-rule:nonzero;fill:rgb(100%,100%,100%);fill-opacity:1;" d="M 41.332031 27.464844 C 41.332031 27.601562 41.734375 27.734375 42.214844 27.734375 L 43.121094 27.734375 L 43.28125 34.558594 C 43.441406 40.988281 43.492188 41.492188 44.054688 42.640625 C 44.398438 43.308594 45.066406 44.132812 45.519531 44.425781 C 47.171875 45.519531 50.535156 45.546875 51.867188 44.480469 C 53.386719 43.308594 53.464844 42.851562 53.601562 35.066406 L 53.734375 27.867188 L 54.613281 27.785156 C 56.320312 27.625 55.414062 27.199219 53.332031 27.199219 C 51.253906 27.199219 50.347656 27.625 52.078125 27.785156 L 52.933594 27.867188 L 52.933594 34.988281 C 52.933594 41.761719 52.90625 42.132812 52.375 42.828125 C 50.585938 45.226562 48.078125 45.226562 46.292969 42.828125 C 45.761719 42.132812 45.734375 41.761719 45.734375 34.988281 L 45.734375 27.867188 L 46.746094 27.785156 C 47.28125 27.734375 47.734375 27.601562 47.734375 27.441406 C 47.734375 27.308594 46.347656 27.199219 44.535156 27.199219 C 42.585938 27.199219 41.332031 27.308594 41.332031 27.464844 Z M 41.332031 27.464844 "/>
<path style=" stroke:none;fill-rule:nonzero;fill:rgb(100%,100%,100%);fill-opacity:1;" d="M 68.105469 28.71875 L 67.679688 30.214844 L 68.90625 34.292969 C 69.574219 36.535156 70.132812 38.425781 70.132812 38.507812 C 70.132812 38.585938 68.988281 38.667969 67.601562 38.667969 C 66.078125 38.667969 65.066406 38.773438 65.066406 38.933594 C 65.066406 39.09375 66.027344 39.199219 67.414062 39.199219 C 68.90625 39.199219 69.921875 39.332031 70.1875 39.519531 C 70.535156 39.839844 71.734375 43.386719 71.734375 44.1875 C 71.734375 44.398438 71.332031 44.535156 70.667969 44.535156 C 70.078125 44.535156 69.601562 44.640625 69.601562 44.800781 C 69.601562 44.960938 70.878906 45.066406 72.933594 45.066406 C 74.988281 45.066406 76.265625 44.960938 76.265625 44.800781 C 76.265625 44.640625 75.894531 44.535156 75.464844 44.535156 C 74.878906 44.535156 74.585938 44.375 74.398438 43.921875 C 74.160156 43.386719 69.332031 27.546875 69.332031 27.308594 C 69.332031 27.253906 69.148438 27.199219 68.933594 27.199219 C 68.691406 27.199219 68.375 27.761719 68.105469 28.71875 Z M 68.105469 28.71875 "/>
<path style=" stroke:none;fill-rule:nonzero;fill:rgb(100%,100%,100%);fill-opacity:1;" d="M 22.132812 28 C 21.171875 28.960938 21.652344 30.398438 22.933594 30.398438 C 23.734375 30.398438 24.265625 29.8125 24.265625 28.960938 C 24.265625 28.480469 23.359375 27.464844 22.933594 27.464844 C 22.800781 27.464844 22.425781 27.707031 22.132812 28 Z M 22.132812 28 "/>
<path style=" stroke:none;fill-rule:nonzero;fill:rgb(100%,100%,100%);fill-opacity:1;" d="M 49.601562 47.601562 C 49.148438 47.867188 49.066406 47.972656 49.359375 48 C 50 48 50.132812 48.773438 50.132812 52.851562 C 50.132812 55.679688 50.054688 56.585938 49.734375 56.878906 C 49.226562 57.414062 49.492188 57.601562 50.691406 57.601562 C 51.761719 57.601562 52.265625 57.226562 51.601562 56.960938 C 51.253906 56.851562 51.199219 56.027344 51.199219 52 C 51.199219 47.601562 51.171875 47.199219 50.746094 47.199219 C 50.480469 47.226562 49.972656 47.386719 49.601562 47.601562 Z M 49.601562 47.601562 "/>
<path style=" stroke:none;fill-rule:nonzero;fill:rgb(100%,100%,100%);fill-opacity:1;" d="M 74.933594 47.601562 C 74.425781 47.894531 74.375 47.972656 74.746094 48 C 75.121094 48 75.199219 48.238281 75.199219 49.414062 L 75.199219 50.800781 L 73.972656 50.71875 C 72.988281 50.640625 72.640625 50.71875 72.078125 51.226562 C 70.398438 52.800781 70.1875 55.332031 71.601562 56.800781 C 72.425781 57.679688 73.972656 57.894531 74.640625 57.253906 C 74.933594 56.988281 75.011719 56.988281 75.121094 57.253906 C 75.28125 57.679688 75.945312 57.679688 76.773438 57.226562 C 77.28125 56.933594 77.332031 56.851562 76.960938 56.71875 C 76.585938 56.558594 76.535156 55.945312 76.535156 51.867188 C 76.535156 47.601562 76.507812 47.199219 76.078125 47.199219 C 75.8125 47.226562 75.308594 47.386719 74.933594 47.601562 Z M 74.667969 51.464844 C 75.121094 51.921875 75.199219 52.347656 75.199219 54.265625 C 75.199219 56.425781 75.171875 56.535156 74.558594 56.691406 C 73.09375 57.039062 72 55.839844 72 53.867188 C 72 51.519531 73.441406 50.238281 74.667969 51.464844 Z M 74.667969 51.464844 "/>
<path style=" stroke:none;fill-rule:nonzero;fill:rgb(100%,100%,100%);fill-opacity:1;" d="M 3.679688 47.894531 C 4.238281 48.292969 4.265625 48.453125 4.265625 52.558594 C 4.265625 56.078125 4.1875 56.851562 3.867188 56.960938 C 3.226562 57.226562 3.679688 57.601562 4.640625 57.601562 C 5.679688 57.601562 6 57.359375 5.464844 56.960938 C 5.121094 56.71875 5.066406 56.027344 5.121094 53.066406 L 5.199219 49.492188 L 6.933594 53.332031 C 7.894531 55.441406 8.773438 57.148438 8.933594 57.148438 C 9.066406 57.148438 9.972656 55.414062 10.933594 53.308594 L 12.667969 49.464844 L 12.746094 53.066406 C 12.800781 56.054688 12.746094 56.71875 12.398438 56.960938 C 12.1875 57.121094 12 57.332031 12 57.441406 C 12 57.707031 14.878906 57.625 15.066406 57.332031 C 15.148438 57.171875 15.039062 57.066406 14.828125 57.066406 C 14.453125 57.066406 14.398438 56.453125 14.398438 52.535156 C 14.398438 48.054688 14.398438 47.972656 15.011719 47.734375 C 15.464844 47.546875 15.332031 47.492188 14.238281 47.492188 L 12.851562 47.464844 L 11.171875 51.199219 C 10.265625 53.253906 9.414062 54.933594 9.332031 54.933594 C 9.226562 54.933594 8.375 53.253906 7.464844 51.199219 L 5.785156 47.464844 L 4.425781 47.464844 C 3.121094 47.464844 3.09375 47.492188 3.679688 47.894531 Z M 3.679688 47.894531 "/>
<path style=" stroke:none;fill-rule:nonzero;fill:rgb(100%,100%,100%);fill-opacity:1;" d="M 25.867188 47.8125 C 26.535156 48.132812 26.535156 48.160156 26.613281 52.320312 C 26.667969 55.761719 26.613281 56.558594 26.265625 56.878906 C 25.652344 57.519531 25.761719 57.601562 27.332031 57.601562 C 28.746094 57.601562 29.253906 57.308594 28.398438 56.960938 C 28.078125 56.851562 28 56.320312 28 54.667969 L 28 52.535156 L 29.039062 52.535156 C 30.347656 52.535156 30.933594 52.746094 30.933594 53.199219 C 30.933594 53.414062 31.066406 53.652344 31.199219 53.734375 C 31.359375 53.839844 31.464844 53.28125 31.464844 52.292969 C 31.464844 50.585938 31.253906 50.238281 30.800781 51.253906 C 30.585938 51.761719 30.292969 51.894531 29.28125 51.945312 L 28 52.027344 L 28 48 L 29.546875 48 C 31.121094 48 31.707031 48.265625 32.214844 49.199219 C 32.480469 49.652344 32.507812 49.574219 32.535156 48.585938 L 32.535156 47.464844 L 28.878906 47.464844 C 25.734375 47.464844 25.308594 47.519531 25.867188 47.8125 Z M 25.867188 47.8125 "/>
<path style=" stroke:none;fill-rule:nonzero;fill:rgb(100%,100%,100%);fill-opacity:1;" d="M 36.878906 50.71875 C 35.867188 50.988281 35.414062 51.519531 35.519531 52.320312 C 35.625 53.199219 36.375 53.09375 36.480469 52.1875 C 36.640625 50.828125 38.1875 50.640625 38.691406 51.921875 C 39.011719 52.773438 38.878906 52.933594 37.386719 53.601562 C 35.679688 54.375 35.199219 54.851562 35.199219 55.894531 C 35.199219 57.464844 36.71875 58.132812 38.105469 57.171875 C 38.691406 56.746094 38.746094 56.746094 38.988281 57.171875 C 39.308594 57.761719 40.078125 57.707031 40.691406 57.039062 C 41.199219 56.480469 41.199219 56.480469 40.667969 56.558594 C 40.160156 56.667969 40.132812 56.507812 40.054688 54.132812 C 39.972656 51.386719 39.707031 50.800781 38.425781 50.613281 C 38.027344 50.558594 37.332031 50.613281 36.878906 50.71875 Z M 38.933594 54.773438 C 38.933594 55.707031 38.800781 56.054688 38.347656 56.375 C 37.519531 56.960938 36.878906 56.90625 36.535156 56.265625 C 36.105469 55.492188 36.453125 54.71875 37.414062 54.105469 C 38.691406 53.332031 38.933594 53.441406 38.933594 54.773438 Z M 38.933594 54.773438 "/>
<path style=" stroke:none;fill-rule:nonzero;fill:rgb(100%,100%,100%);fill-opacity:1;" d="M 56.078125 50.71875 C 55.066406 50.988281 54.613281 51.519531 54.71875 52.320312 C 54.828125 53.199219 55.574219 53.09375 55.679688 52.1875 C 55.839844 50.828125 57.386719 50.640625 57.894531 51.921875 C 58.214844 52.773438 58.078125 52.933594 56.585938 53.601562 C 54.878906 54.375 54.398438 54.851562 54.398438 55.894531 C 54.398438 57.464844 55.921875 58.132812 57.308594 57.171875 C 57.894531 56.746094 57.945312 56.746094 58.1875 57.171875 C 58.507812 57.761719 59.28125 57.707031 59.894531 57.039062 C 60.398438 56.480469 60.398438 56.480469 59.867188 56.558594 C 59.359375 56.667969 59.332031 56.507812 59.253906 54.132812 C 59.171875 51.386719 58.90625 50.800781 57.625 50.613281 C 57.226562 50.558594 56.535156 50.613281 56.078125 50.71875 Z M 58.132812 54.773438 C 58.132812 55.707031 58 56.054688 57.546875 56.375 C 56.71875 56.960938 56.078125 56.90625 55.734375 56.265625 C 55.308594 55.492188 55.652344 54.71875 56.613281 54.105469 C 57.894531 53.332031 58.132812 53.441406 58.132812 54.773438 Z M 58.132812 54.773438 "/>
<path style=" stroke:none;fill-rule:nonzero;fill:rgb(100%,100%,100%);fill-opacity:1;" d="M 18.773438 51.574219 C 17.679688 52.667969 17.464844 54.292969 18.160156 56.054688 C 18.960938 58.078125 21.867188 58.105469 22.90625 56.078125 C 23.441406 55.039062 23.226562 54.878906 22.507812 55.734375 C 21.945312 56.375 21.625 56.535156 20.960938 56.480469 C 19.121094 56.292969 18.1875 52.988281 19.601562 51.574219 C 20.425781 50.746094 21.011719 50.828125 21.601562 51.867188 C 22.105469 52.773438 22.851562 53.039062 23.09375 52.398438 C 23.199219 52.132812 23.011719 51.707031 22.667969 51.308594 C 22.1875 50.828125 21.761719 50.667969 20.851562 50.667969 C 19.867188 50.667969 19.519531 50.828125 18.773438 51.574219 Z M 18.773438 51.574219 "/>
<path style=" stroke:none;fill-rule:nonzero;fill:rgb(100%,100%,100%);fill-opacity:1;" d="M 43.226562 51.039062 C 42.71875 51.332031 42.667969 51.414062 43.039062 51.546875 C 43.386719 51.679688 43.464844 52.1875 43.464844 54.398438 C 43.464844 56 43.359375 57.066406 43.199219 57.066406 C 43.066406 57.066406 42.933594 57.171875 42.933594 57.332031 C 42.933594 57.464844 43.546875 57.601562 44.265625 57.601562 C 45.546875 57.601562 46.027344 57.28125 45.199219 56.960938 C 44.878906 56.851562 44.800781 56.320312 44.800781 54.640625 C 44.800781 52.027344 45.199219 51.308594 46.320312 51.8125 C 46.828125 52.027344 47.011719 52.027344 47.199219 51.734375 C 47.839844 50.691406 46.425781 50.292969 45.414062 51.253906 L 44.800781 51.8125 L 44.800781 51.253906 C 44.800781 50.585938 44.214844 50.507812 43.226562 51.039062 Z M 43.226562 51.039062 "/>
<path style=" stroke:none;fill-rule:nonzero;fill:rgb(100%,100%,100%);fill-opacity:1;" d="M 62.425781 51.039062 C 61.921875 51.332031 61.867188 51.414062 62.238281 51.546875 C 62.585938 51.679688 62.667969 52.1875 62.667969 54.398438 C 62.667969 56 62.558594 57.066406 62.398438 57.066406 C 62.265625 57.066406 62.132812 57.171875 62.132812 57.332031 C 62.132812 57.652344 64.453125 57.679688 64.640625 57.359375 C 64.71875 57.226562 64.613281 57.039062 64.398438 56.960938 C 64.054688 56.828125 64 56.375 64.054688 54.480469 C 64.132812 52.265625 64.160156 52.132812 64.851562 51.734375 C 66.160156 51.011719 66.535156 51.546875 66.613281 54.265625 C 66.667969 55.652344 66.585938 56.71875 66.398438 56.90625 C 65.894531 57.414062 66.132812 57.601562 67.332031 57.601562 C 68 57.601562 68.535156 57.464844 68.535156 57.332031 C 68.535156 57.171875 68.425781 57.066406 68.265625 57.066406 C 68.105469 57.066406 68 56.132812 68 54.800781 C 68 53.414062 67.839844 52.160156 67.625 51.601562 C 67.28125 50.800781 67.09375 50.667969 66.320312 50.667969 C 65.785156 50.667969 65.09375 50.90625 64.691406 51.226562 L 64 51.761719 L 64 51.226562 C 64 50.585938 63.386719 50.507812 62.425781 51.039062 Z M 62.425781 51.039062 "/>
</g>
</svg>
